<?xml version="1.0" encoding="UTF-8"?><svg xmlns="http://www.w3.org/2000/svg" viewBox="0 0 73.95 73.95"><defs><style>.d{fill:#fff;}.e{fill:#ccd4e0;}</style></defs><g id="a"/><g id="b"><g id="c"><g><circle class="e" cx="36.98" cy="36.98" r="36.98"/><path class="d" d="M36.98,70.85c14.85,0,21.6-6.91,26.2-12.89l-.59-3.5c-1.56-8.5-8.44-8.78-9.98-9.26-1.53-.48-7.1-2.01-7.87-3.74-.26-.57-.28-1.67-.19-2.86,2.19-2.63,3.63-5.95,4.39-8.07,1.13,.79,1.58-.19,1.58-.19,3.55-5.18,1.34-7.29,.87-7.67-.48-.38-.96,.29-.96,.29l-.05,.14c.68-13.8-11.11-14.75-12.5-14.82,.02,0-.12,.02-.91,.04-.8-.02-.94-.03-.91-.04-1.36,.06-13.19,.99-12.51,14.82l-.05-.14s-.48-.67-.96-.29c-.48,.38-2.69,2.49,.87,7.67,0,0,.46,.98,1.58,.19,.77,2.12,2.2,5.44,4.39,8.07,.09,1.2,.07,2.29-.19,2.86-.77,1.73-6.33,3.26-7.87,3.74-1.53,.48-8.53,.9-9.98,9.26l-.59,3.5c4.08,5.16,13.68,12.89,26.2,12.89Z"/></g></g></g></svg>