<?xml version="1.0" encoding="UTF-8"?><svg xmlns="http://www.w3.org/2000/svg" viewBox="0 0 160.97 47.81"><defs><style>.d{fill:#161616;}</style></defs><g id="a"/><g id="b"><g id="c"><g><path class="d" d="M62.14,25.44v-2.26c0-2.53-.18-4.7-.53-6.5-.35-1.81-1.08-3.19-2.18-4.15-1.1-.96-2.82-1.44-5.16-1.44-2.11,0-3.77,.42-4.97,1.25-1.2,.83-2.04,2.06-2.52,3.7-.48,1.63-.72,3.68-.72,6.14v6.34c0,2.4,.23,4.42,.7,6.07,.46,1.65,1.29,2.9,2.47,3.74,1.18,.85,2.86,1.27,5.04,1.27,2.85,0,4.86-.8,6.05-2.4,1.18-1.6,1.78-3.79,1.78-6.58v-1.06h-4.99v1.68c0,.93-.07,1.74-.22,2.42-.14,.69-.42,1.22-.82,1.58-.4,.37-.98,.55-1.75,.55s-1.34-.17-1.8-.5c-.46-.34-.8-.86-1.01-1.56-.21-.7-.31-1.62-.31-2.74v-5.57h10.94Zm-10.94-4.27c0-1.6,.08-2.86,.24-3.77,.16-.91,.46-1.56,.89-1.94,.43-.38,1.06-.58,1.9-.58s1.5,.2,1.9,.6c.4,.4,.66,.99,.79,1.78,.13,.78,.19,1.75,.19,2.9v2.5h-5.9v-1.49Z"/><path class="d" d="M30.76,26.58c-.17-2.05-.92-4.01-2.16-5.65-1.38-1.74-3.53-2.69-5.74-2.53-1.97,0-3.9,.61-5.51,1.74-1.58,1.04-3,2.31-4.22,3.77-1.96,2.51-3.43,4.29-4.41,5.33-.92,1.1-1.65,1.65-2.2,1.65-.49,0-.81-.35-.96-1.06-.14-.91-.06-1.84,.23-2.71,.93-2.44,2.16-4.76,3.67-6.89,.74-1.04,1.39-2.15,1.93-3.31,.39-.99,.58-2.05,.55-3.12,.13-1.58-.46-3.13-1.61-4.22-.88-.84-2.04-1.33-3.26-1.38-2.05,.04-3.98,.94-5.33,2.48-.86,.86-1.44,1.47-1.74,1.84l3.4,3.31c1.77-1.78,2.91-2.57,3.4-2.39,.67,.24,.46,1.22-.65,2.94-.21,.4-.46,.79-.73,1.15-.49,.7-.96,1.45-1.42,2.25-.46,.8-.96,1.72-1.51,2.76-.55,1.04-1.02,2.13-1.38,3.26-.34,.96-.52,1.97-.55,2.99-.13,2.28,.86,4.48,2.66,5.88,1.46,1.14,3.4,1.45,5.14,.83,.77-.24,1.49-.63,2.11-1.15,.65-.51,1.25-1.07,1.79-1.7,.46-.55,1.18-1.41,2.16-2.57,1.37-1.71,2.84-3.33,4.41-4.87,.92-1.05,2.2-1.7,3.58-1.84,.58-.02,1.16,.08,1.7,.28,.42,.15,.78,.44,1.01,.83,.18,.31,.34,.63,.46,.96,.11,.37,.19,.76,.23,1.15v.28c-3.03,.37-5.82,1.86-7.81,4.18-1.84,2.23-2.76,4.36-2.76,6.38-.01,1.63,.67,3.18,1.88,4.27,1.19,1.17,2.79,1.81,4.45,1.79,2.25-.11,4.36-1.14,5.83-2.85,1.87-1.9,2.98-4.96,3.35-9.18h4.77v-4.87h-4.78Zm-6.56,10.47c-.53,.92-1.47,1.53-2.53,1.65h0c-.38,0-.74-.15-1.01-.41-.3-.27-.47-.65-.46-1.06,.14-1.11,.64-2.14,1.43-2.94,1.09-1.25,2.56-2.12,4.18-2.48-.07,1.86-.62,3.66-1.61,5.24Z"/><path class="d" d="M120.05,37.27c-.08-.69-.14-1.43-.19-2.23s-.07-1.63-.07-2.5v-12.67c0-2.85-.58-5.02-1.73-6.53-1.15-1.5-3.1-2.26-5.86-2.26s-4.9,.73-6.24,2.18c-1.34,1.46-2.05,3.72-2.11,6.79l5.09,.19v-1.39c0-.8,.1-1.5,.29-2.09,.19-.59,.5-1.05,.94-1.37,.43-.32,1-.48,1.7-.48,.8,0,1.4,.18,1.8,.55,.4,.37,.66,.92,.79,1.66,.13,.74,.19,1.66,.19,2.78v1.97c-1.47,.58-2.87,1.17-4.2,1.78-1.33,.61-2.5,1.32-3.5,2.14s-1.8,1.82-2.38,3c-.58,1.18-.86,2.64-.86,4.37,0,1.09,.24,2.12,.72,3.1,.48,.98,1.13,1.78,1.97,2.4,.83,.62,1.79,.94,2.88,.94,1.6,0,2.86-.47,3.77-1.42,.91-.94,1.53-1.96,1.85-3.05,.06,.64,.17,1.35,.31,2.14,.14,.79,.26,1.43,.36,1.94h4.7c-.06-.61-.14-1.26-.22-1.94Zm-5.4-4.39c-.13,.22-.37,.52-.72,.89-.35,.37-.75,.7-1.2,.98s-.93,.43-1.44,.43c-.8,0-1.41-.32-1.82-.96-.42-.64-.62-1.52-.62-2.64,0-.8,.15-1.51,.46-2.14,.3-.62,.72-1.18,1.25-1.68,.53-.5,1.14-.97,1.85-1.42,.7-.45,1.46-.9,2.26-1.34v7.87Z"/><path class="d" d="M141.94,14.71c.69-.24,1.24-.39,1.66-.46l-1.3-3.31-.77,.34c-.93,.42-1.75,.94-2.45,1.56-.7,.62-1.14,1.06-1.29,1.32-.48-1.02-1.18-1.79-2.09-2.3-.91-.51-2.12-.77-3.62-.77-1.7,0-3.13,.38-4.29,1.13-1.17,.75-2.05,1.86-2.64,3.31-.59,1.46-.89,3.27-.89,5.45s.27,3.94,.82,5.18c.54,1.25,1.34,2.27,2.4,3.07-.96,.86-1.71,1.67-2.26,2.4-.54,.74-.82,1.62-.82,2.64,0,.61,.22,1.19,.67,1.75,.45,.56,1.12,.97,2.02,1.22-.67,.32-1.31,.73-1.92,1.22-.61,.5-1.1,1.08-1.49,1.75s-.58,1.46-.58,2.35c0,1.25,.38,2.26,1.15,3.02s1.82,1.33,3.17,1.68c1.34,.35,2.85,.53,4.51,.53,2.18,0,3.98-.26,5.4-.77,1.42-.51,2.49-1.29,3.19-2.33,.7-1.04,1.06-2.31,1.06-3.82,0-2.08-.53-3.68-1.58-4.8-1.06-1.12-2.67-1.78-4.85-1.97l-4.32-.38c-.8-.06-1.38-.2-1.75-.41-.37-.21-.55-.49-.55-.84s.1-.72,.31-1.1c.21-.38,.41-.72,.6-1.01,.38,.1,.82,.18,1.3,.24,.48,.06,.93,.1,1.34,.1,1.95,0,3.48-.41,4.58-1.22,1.1-.82,1.9-1.94,2.38-3.38,.48-1.44,.72-3.1,.72-4.99,0-.8-.09-1.71-.26-2.74-.18-1.02-.38-1.81-.6-2.35,.16-.16,.54-.36,1.13-.6,.59-.24,1.23-.48,1.92-.72Zm-12.46,23.11l4.37,.38c1.02,.1,1.81,.26,2.35,.48,.54,.22,.92,.53,1.13,.91,.21,.38,.31,.86,.31,1.44,0,.96-.43,1.66-1.3,2.09s-2.21,.65-4.03,.65-3.14-.21-3.84-.62c-.7-.42-1.06-1.04-1.06-1.87,0-.45,.1-.87,.29-1.27,.19-.4,.45-.78,.77-1.13,.32-.35,.66-.7,1.01-1.06Zm5.78-14.26c-.08,.77-.23,1.42-.46,1.94-.22,.53-.55,.93-.98,1.2-.43,.27-1.02,.41-1.75,.41s-1.28-.16-1.73-.48c-.45-.32-.79-.75-1.03-1.3-.24-.54-.4-1.19-.48-1.94-.08-.75-.12-1.56-.12-2.42,0-1.02,.05-1.93,.14-2.71,.1-.78,.25-1.44,.48-1.97,.22-.53,.57-.94,1.03-1.22,.46-.29,1.05-.43,1.75-.43s1.32,.14,1.75,.43c.43,.29,.75,.71,.96,1.27,.21,.56,.35,1.23,.43,2.02,.08,.79,.12,1.66,.12,2.62s-.04,1.82-.12,2.59Z"/><path class="d" d="M160.97,25.44v-2.26c0-2.53-.18-4.7-.53-6.5-.35-1.81-1.08-3.19-2.18-4.15-1.1-.96-2.83-1.44-5.16-1.44-2.11,0-3.77,.42-4.97,1.25-1.2,.83-2.04,2.06-2.52,3.7-.48,1.63-.72,3.68-.72,6.14v6.34c0,2.4,.23,4.42,.7,6.07,.46,1.65,1.29,2.9,2.47,3.74s2.86,1.27,5.04,1.27c2.85,0,4.86-.8,6.05-2.4s1.78-3.79,1.78-6.58v-1.06h-4.99v1.68c0,.93-.07,1.74-.22,2.42-.14,.69-.42,1.22-.82,1.58-.4,.37-.98,.55-1.75,.55s-1.34-.17-1.8-.5c-.46-.34-.8-.86-1.01-1.56-.21-.7-.31-1.62-.31-2.74v-5.57h10.94Zm-10.94-4.27c0-1.6,.08-2.86,.24-3.77,.16-.91,.46-1.56,.89-1.94,.43-.38,1.06-.58,1.9-.58s1.5,.2,1.9,.6c.4,.4,.66,.99,.79,1.78s.19,1.75,.19,2.9v2.5h-5.9v-1.49Z"/><path class="d" d="M76.4,39.65c-2.24,0-4.1-.48-5.59-1.44-1.49-.96-2.62-2.29-3.38-3.98-.77-1.7-1.22-3.66-1.34-5.9l4.8-1.3c.1,1.38,.31,2.71,.65,3.98,.34,1.28,.89,2.33,1.66,3.14,.77,.82,1.84,1.22,3.22,1.22s2.47-.39,3.19-1.18c.72-.78,1.08-1.91,1.08-3.38,0-1.76-.4-3.17-1.2-4.25-.8-1.07-1.81-2.15-3.02-3.24l-6.53-5.76c-1.28-1.12-2.22-2.34-2.83-3.67-.61-1.33-.91-2.97-.91-4.92,0-2.85,.82-5.06,2.45-6.62,1.63-1.57,3.86-2.35,6.67-2.35,1.54,0,2.89,.2,4.06,.6,1.17,.4,2.14,1.02,2.93,1.85s1.41,1.88,1.87,3.14c.46,1.26,.78,2.74,.94,4.44l-4.61,1.25c-.1-1.28-.29-2.46-.58-3.53s-.79-1.94-1.51-2.59-1.75-.98-3.1-.98-2.39,.36-3.14,1.08c-.75,.72-1.13,1.78-1.13,3.19,0,1.18,.2,2.16,.6,2.93,.4,.77,1.05,1.55,1.94,2.35l6.58,5.76c1.47,1.28,2.77,2.81,3.89,4.58,1.12,1.77,1.68,3.88,1.68,6.31,0,1.92-.4,3.58-1.2,4.97-.8,1.39-1.9,2.46-3.29,3.19-1.39,.74-3,1.1-4.82,1.1Z"/><path class="d" d="M96.89,39.6c-1.44,0-2.6-.27-3.48-.82-.88-.54-1.52-1.31-1.92-2.3-.4-.99-.6-2.16-.6-3.5V14.88h-2.93v-3.41h2.93V3.36h5.14V11.47h4.46v3.41h-4.46v17.76c0,1.09,.18,1.86,.53,2.33s1.02,.7,2.02,.7c.26,0,.55-.02,.89-.05s.66-.06,.98-.1v3.79c-.64,.1-1.23,.17-1.78,.22-.54,.05-1.14,.07-1.78,.07Z"/></g></g></g></svg>