<?xml version="1.0" encoding="UTF-8"?><svg xmlns="http://www.w3.org/2000/svg" viewBox="0 0 169.28 80.24"><defs><style>.r{fill:#ee232d;}</style></defs><g id="a"/><g id="b"><g id="c"><g><g id="d"><path id="e" class="r" d="M74.5,0h-10.69l21.19,32.46L106.1,0h-10.7l-10.4,15.83L74.5,0Z"/><path id="f" class="r" d="M63.82,16.52v23.31h9v-9.36l-9-13.95Z"/><path id="g" class="r" d="M106.09,16.52v23.31h-9v-9.36l9-13.95Z"/></g><g id="h"><g id="i"><path id="j" d="M58.87,60h-8.68v19.87h8.56c7.55,0,12-4.26,12-10h0c-.05-5.77-4.39-9.87-11.88-9.87Zm5.88,10c0,3.21-2.31,5-5.79,5h-3.43v-10.12h3.47c3.47,0,5.78,1.85,5.78,5l-.03,.12Z"/><rect id="k" x="74.1" y="59.87" width="5.53" height="19.85"/><path id="l" d="M143.13,69.9v-.06c.11-2.84-2.1-5.24-4.94-5.35h-.19c-2.76,0-5,2.24-5,5v.35c-.11,2.85,2.11,5.25,4.95,5.36h.18c2.79,0,5.06-2.26,5.06-5.06h0v-.24m-15.77,0v-.06c.16-5.91,5.08-10.56,10.99-10.4,5.65,.16,10.21,4.69,10.4,10.34v.06c-.16,5.91-5.08,10.56-10.99,10.4-5.65-.16-10.21-4.69-10.4-10.34"/><path id="m" d="M155.9,69.76l-6.52-9.76h6.32l3.52,5.59,3.55-5.59h6.23l-6.53,9.7,6.81,10.16h-6.32l-3.8-6-3.84,6h-6.18l6.76-10.1Z"/><path id="n" d="M22.32,59.85v19.86h-5.39v-11.5h0v-1.06l-.68,1-1,1.49h0l-4.1,6.36-2.4-3.67-1.92-3h0l-.76-1.17-.67-1v12.55H0v-19.77H0v-.09H7.19l4,6,3.95-6h7.18Z"/><path id="o" d="M101.74,79.87h6.54l-12.94-19.87-12.94,19.87h6.6l6.4-9.69,6.34,9.69Z"/><path id="p" d="M108.36,60h-6.54l12.94,19.86,12.94-19.86h-6.55l-6.4,9.69-6.39-9.69Z"/><path id="q" d="M45.12,75.08v4.68H27.78v-19.84h17.22v4.68h-11.76v3h10.76v4.4h-10.76v3.15h11.88v-.07Z"/></g></g></g></g></g></svg>